<svg xmlns="http://www.w3.org/2000/svg" width="32" height="32" viewBox="0 0 32 32" fill="none">
  <defs>
    <linearGradient id="bg" x1="16" y1="0" x2="16" y2="32" gradientUnits="userSpaceOnUse">
      <stop offset="0%" stop-color="#d1fae5"/>
      <stop offset="100%" stop-color="#6ee7b7"/>
    </linearGradient>
    <clipPath id="c"><circle cx="16" cy="16" r="14"/></clipPath>
  </defs>
  <circle cx="16" cy="16" r="14" fill="url(#bg)"/>
  <rect x="2" y="2" width="28" height="14" rx="14" fill="white" fill-opacity="0.35" clip-path="url(#c)"/>
  <circle cx="16" cy="16" r="13.5" stroke="#065f46" stroke-opacity="0.15" stroke-width="1"/>
  <g transform="translate(4, 3.5)" stroke="#022c22" stroke-width="1.8" stroke-linecap="round" stroke-linejoin="round" fill="none">
    <path d="M20 13c0 5-3.5 7.5-7.66 8.95a1 1 0 0 1-.67-.01C7.5 20.5 4 18 4 13V6a1 1 0 0 1 1-1c2 0 4.5-1.2 6.24-2.72a1.17 1.17 0 0 1 1.52 0C14.51 3.81 17 5 19 5a1 1 0 0 1 1 1z"/>
    <path d="m9 12 2 2 4-4"/>
  </g>
</svg>
